<?xml version="1.0" encoding="UTF-8" standalone="no"?>
<svg width="43px" height="31px" viewBox="0 0 43 31" version="1.1" xmlns="http://www.w3.org/2000/svg" xmlns:xlink="http://www.w3.org/1999/xlink" xmlns:sketch="http://www.bohemiancoding.com/sketch/ns">
    <!-- Generator: Sketch 3.3.3 (12081) - http://www.bohemiancoding.com/sketch -->
    <title>empty-plates</title>
    <desc>Created with Sketch.</desc>
    <defs></defs>
    <g id="HawkerHub/Logos" stroke="none" stroke-width="1" fill="none" fill-rule="evenodd" sketch:type="MSPage">
        <g id="empty-plates" sketch:type="MSLayerGroup" transform="translate(0.754902, 0.000000)">
            <g id="Plate-Copy-4" transform="translate(0.000000, 12.460784)" sketch:type="MSShapeGroup">
                <path d="M20.9705882,18.2468354 C32.5357461,18.2468354 41.9411765,14.2680863 41.9411765,9.20035989 C41.9411765,4.13263352 32.5357461,0.153884339 20.9705882,0.153884339 C9.4054304,0.153884339 0,4.13263352 0,9.20035989 C0,14.2680863 9.4054304,18.2468354 20.9705882,18.2468354 L20.9705882,18.2468354 Z" id="Shape" fill="#979797"></path>
                <path d="M20.9705882,17.6389923 C9.70797641,17.6389923 0.607843137,13.789392 0.607843137,9.20035989 C0.607843137,4.61132778 9.70797641,0.761727476 20.9705882,0.761727476 C32.2332001,0.761727476 41.3333333,4.61132778 41.3333333,9.20035989 C41.3333333,13.789392 32.2332001,17.6389923 20.9705882,17.6389923 L20.9705882,17.6389923 Z" id="Path" fill="#FFFFFF"></path>
            </g>
            <g id="Plate-Copy-3" transform="translate(0.000000, 9.421569)" sketch:type="MSShapeGroup">
                <path d="M20.9705882,18.2468354 C32.5357461,18.2468354 41.9411765,14.2680863 41.9411765,9.20035989 C41.9411765,4.13263352 32.5357461,0.153884339 20.9705882,0.153884339 C9.4054304,0.153884339 0,4.13263352 0,9.20035989 C0,14.2680863 9.4054304,18.2468354 20.9705882,18.2468354 L20.9705882,18.2468354 Z" id="Shape" fill="#979797"></path>
                <path d="M20.9705882,17.6389923 C9.70797641,17.6389923 0.607843137,13.789392 0.607843137,9.20035989 C0.607843137,4.61132778 9.70797641,0.761727476 20.9705882,0.761727476 C32.2332001,0.761727476 41.3333333,4.61132778 41.3333333,9.20035989 C41.3333333,13.789392 32.2332001,17.6389923 20.9705882,17.6389923 L20.9705882,17.6389923 Z" id="Path" fill="#FFFFFF"></path>
            </g>
            <g id="Plate-Copy-2" transform="translate(0.000000, 6.382353)" sketch:type="MSShapeGroup">
                <path d="M20.9705882,18.2468354 C32.5357461,18.2468354 41.9411765,14.2680863 41.9411765,9.20035989 C41.9411765,4.13263352 32.5357461,0.153884339 20.9705882,0.153884339 C9.4054304,0.153884339 0,4.13263352 0,9.20035989 C0,14.2680863 9.4054304,18.2468354 20.9705882,18.2468354 L20.9705882,18.2468354 Z" id="Shape" fill="#979797"></path>
                <path d="M20.9705882,17.6389923 C9.70797641,17.6389923 0.607843137,13.789392 0.607843137,9.20035989 C0.607843137,4.61132778 9.70797641,0.761727476 20.9705882,0.761727476 C32.2332001,0.761727476 41.3333333,4.61132778 41.3333333,9.20035989 C41.3333333,13.789392 32.2332001,17.6389923 20.9705882,17.6389923 L20.9705882,17.6389923 Z" id="Path" fill="#FFFFFF"></path>
            </g>
            <g id="Plate" transform="translate(0.000000, 3.343137)" sketch:type="MSShapeGroup">
                <path d="M20.9705882,18.2468354 C32.5357461,18.2468354 41.9411765,14.2680863 41.9411765,9.20035989 C41.9411765,4.13263352 32.5357461,0.153884339 20.9705882,0.153884339 C9.4054304,0.153884339 0,4.13263352 0,9.20035989 C0,14.2680863 9.4054304,18.2468354 20.9705882,18.2468354 L20.9705882,18.2468354 Z" id="Shape" fill="#979797"></path>
                <path d="M20.9705882,17.6389923 C9.70797641,17.6389923 0.607843137,13.789392 0.607843137,9.20035989 C0.607843137,4.61132778 9.70797641,0.761727476 20.9705882,0.761727476 C32.2332001,0.761727476 41.3333333,4.61132778 41.3333333,9.20035989 C41.3333333,13.789392 32.2332001,17.6389923 20.9705882,17.6389923 L20.9705882,17.6389923 Z" id="Path" fill="#FFFFFF"></path>
            </g>
            <g id="Top-plate" sketch:type="MSShapeGroup">
                <g id="Plate-Copy" transform="translate(0.044290, 0.147491)">
                    <path d="M20.9705882,18.2468354 C32.5357461,18.2468354 41.9411765,14.2680863 41.9411765,9.20035989 C41.9411765,4.13263352 32.5357461,0.153884339 20.9705882,0.153884339 C9.4054304,0.153884339 0,4.13263352 0,9.20035989 C0,14.2680863 9.4054304,18.2468354 20.9705882,18.2468354 L20.9705882,18.2468354 Z" id="Shape" fill="#979797"></path>
                    <path d="M20.9705882,17.6389923 C9.70797641,17.6389923 0.607843137,13.789392 0.607843137,9.20035989 C0.607843137,4.61132778 9.70797641,0.761727476 20.9705882,0.761727476 C32.2332001,0.761727476 41.3333333,4.61132778 41.3333333,9.20035989 C41.3333333,13.789392 32.2332001,17.6389923 20.9705882,17.6389923 L20.9705882,17.6389923 Z" id="Path" fill="#FFFFFF"></path>
                </g>
                <path d="M6.65186829,8.96183917 C6.65186829,8.94499884 6.65690911,8.89536263 6.67386086,8.81746579 C6.70461124,8.67616146 6.76110834,8.51544685 6.85047959,8.33944141 C7.11539958,7.81771475 7.60008622,7.28742059 8.36709375,6.78391224 C10.6250297,5.3016718 14.7375647,4.40176942 21.166839,4.40176942 C27.5961133,4.40176942 31.7086483,5.3016718 33.9665843,6.78391224 C34.7335918,7.28742059 35.2182784,7.81771475 35.4831984,8.33944141 C35.5725697,8.51544685 35.6290668,8.67616146 35.6598172,8.81746579 C35.6767689,8.89536263 35.6818097,8.94499884 35.6818097,8.96183917 L35.6818097,9.26576073 L36.2896529,9.26576073 L36.2896529,8.96183917 C36.2896529,8.76396738 36.2215337,8.45094598 36.0251738,8.06423964 C35.7112308,7.44596833 35.1539641,6.83626453 34.3001552,6.27577478 C31.9271873,4.71802065 27.7040954,3.79392628 21.166839,3.79392628 C14.6295826,3.79392628 10.4064907,4.71802065 8.03352277,6.27577478 C7.17971396,6.83626453 6.62244724,7.44596833 6.30850425,8.06423964 C6.11214426,8.45094598 6.04402516,8.76396738 6.04402516,8.96183917 L6.04402516,9.26576073 L6.65186829,9.26576073 L6.65186829,8.96183917 L6.65186829,8.96183917 Z" id="Shape" fill="#979797"></path>
            </g>
        </g>
    </g>
</svg>