<?xml version="1.0" encoding="UTF-8" standalone="no"?>
<svg width="18px" height="31px" viewBox="0 0 18 31" version="1.1" xmlns="http://www.w3.org/2000/svg" xmlns:xlink="http://www.w3.org/1999/xlink" xmlns:sketch="http://www.bohemiancoding.com/sketch/ns">
    <!-- Generator: Sketch 3.3.3 (12081) - http://www.bohemiancoding.com/sketch -->
    <title>fork-and-spoon</title>
    <desc>Created with Sketch.</desc>
    <defs></defs>
    <g id="HawkerHub/Logos" stroke="none" stroke-width="1" fill="none" fill-rule="evenodd" sketch:type="MSPage">
        <g id="fork-and-spoon" sketch:type="MSLayerGroup" fill="#000000">
            <path d="M12.0989971,0.0798019802 C13.6033434,-0.148247525 15.2688807,0.614782178 16.1643175,1.85171287 C17.0366825,3.05672277 17.4395043,4.4989901 17.6365503,5.95261386 C17.7980532,7.14810891 17.9299368,8.30707921 17.8604095,9.51761386 C17.8357787,9.95253465 17.841079,10.4000396 17.7110661,10.8168515 C17.5925891,11.1980594 17.5246207,11.7020396 17.3263276,12.0482574 C17.1024684,12.4383663 16.8779856,12.8287822 16.6541264,13.2188911 C16.4726695,13.5341089 16.1752299,13.8143366 15.9457586,14.0948713 C15.7303175,14.3588317 15.4992874,14.614505 15.3075417,14.8965743 C15.0871121,15.2197723 14.7338635,15.5819505 14.5985503,15.9484257 C14.4538836,16.3385347 14.3060991,16.6549802 14.3060991,17.067495 C14.3060991,17.4388812 14.2543434,17.8314455 14.359102,18.1899406 C14.6097744,19.0444356 14.8698003,19.9038416 15.0590517,20.7736832 C15.1697342,21.283802 15.3443319,21.7988317 15.389852,22.3144752 C15.4359957,22.8476139 15.5663204,23.586703 15.5781681,24.1241386 C15.5918865,24.7284851 15.5881451,25.2220297 15.5713089,25.827297 C15.5563434,26.345396 15.5332716,26.9853465 15.4275776,27.6369604 C15.355556,28.0810891 15.3062945,28.2271881 15.1781523,28.6743861 C15.0553103,29.1013267 14.8828951,29.5282673 14.6334698,29.906099 C14.253408,30.4812871 13.7726408,30.6860099 13.1079224,30.6924554 C12.8531968,30.6952178 12.6065776,30.6718911 12.3294037,30.5761287 C11.9652428,30.4496733 11.7501135,30.1025347 11.5711509,29.7636832 C11.1967011,29.0503762 11.0882011,28.2707723 10.9959138,27.479198 C10.9179684,26.8137723 10.8705776,26.1532574 10.8674598,25.4841485 C10.862783,24.569802 10.8789957,23.6557624 10.9089267,22.7417228 C10.9307514,22.0781386 10.9528879,21.4124059 11.0065144,20.7500495 C11.0660647,20.021396 11.2163434,19.3013366 11.2855589,18.5726832 C11.3822112,17.5521386 11.6313247,16.5454059 11.7120761,15.5242475 C11.8427126,13.8769505 11.9848851,12.2354851 12.0425647,10.584198 C12.1594828,7.22023762 12.1523118,3.86026733 12.1055445,0.494772277 C12.1027385,0.356653465 12.1008678,0.218227723 12.0989971,0.0798019802 L12.0989971,0.0798019802 Z" id="Shape" sketch:type="MSShapeGroup"></path>
            <path d="M6.18013506,7.6379703 C6.59199856,7.90070297 7.31127874,7.72176238 7.43349713,7.2110297 C7.60217098,6.50263366 7.53170833,5.72886139 7.51393678,5.00788119 C7.47402874,3.40109901 7.43318534,1.80352475 7.43318534,0.195821782 C7.8459842,0.191831683 8.3205158,0.210554455 8.92163075,0.348366337 C9.19475144,0.410980198 9.24588362,0.455792079 9.24588362,0.455792079 C9.24588362,0.455792079 9.27799713,1.16940594 9.29109195,1.49168317 C9.33817098,2.66262376 9.38899138,3.8329505 9.44760632,5.00327723 C9.50497414,6.1490495 9.54082902,7.29359406 9.54363506,8.44120792 C9.54581753,9.41970297 9.47254885,10.3635149 8.86706897,11.1750396 C8.30742098,11.9245644 7.52516092,12.3149802 6.79434483,12.8628515 C5.96188793,13.4868416 6.03422126,14.4137723 6.18637069,15.3508317 C6.55177874,17.6015545 6.8389296,19.8581089 7.06216523,22.1284752 C7.17690086,23.3003366 7.23925718,24.4783366 7.20994971,25.6560297 C7.18344828,26.7167822 7.13699282,27.8395347 6.78218534,28.8505644 C6.50251724,29.6488911 5.88176006,30.6418119 4.92770833,30.6930693 C4.02167098,30.7406436 3.44986351,29.9091683 3.19139655,29.1590297 C2.46588075,27.0565545 2.60181753,24.791099 2.77485632,22.6152673 C2.86714368,21.4544554 2.94165948,20.291495 3.06107184,19.1334455 C3.18266667,17.9554455 3.3822069,16.7820495 3.55431034,15.6101881 C3.65065086,14.9505941 3.93780172,13.9082574 3.46919397,13.3321485 C2.98187931,12.7327129 2.2124023,12.4739703 1.60661063,12.0200198 C0.0551853448,10.8561386 0.183951149,8.94610891 0.264390805,7.21317822 C0.35449569,5.2859604 0.514127874,1.24675248 0.584278736,0.41650495 C0.584278736,0.41650495 0.960599138,0.347138614 1.14299138,0.325039604 C1.55890805,0.275009901 1.97794253,0.247079208 2.39354741,0.196128713 C2.41474856,1.39008911 2.4259727,2.58435644 2.41973707,3.77862376 C2.41350144,4.92685149 2.32557902,6.08336634 2.40103017,7.23005941 C2.43906753,7.80279208 3.30956178,7.843 3.66125144,7.55110891 C3.94996121,7.31170297 3.90007615,6.77027723 3.91878305,6.4369505 C3.95276724,5.84334653 3.93343678,5.24943564 3.91940661,4.65583168 C3.89165805,3.48458416 3.8975819,2.31272277 3.88542241,1.14116832 C3.88323994,0.926623762 3.87170402,0.709930693 3.8720158,0.495386139 C3.8720158,0.180782178 3.87451006,0.107118812 3.87451006,0.107118812 C3.87451006,0.107118812 4.26392529,0.0448118812 4.3552773,0.0402079208 C4.61592672,0.0273168317 4.67828305,0.0135049505 4.91056034,0.0122772277 C5.06613937,0.0116633663 5.17089799,0.0251683168 5.56779598,0.0742772277 C5.70404454,0.0911584158 5.91231466,0.167584158 5.91231466,0.167584158 C5.91231466,0.167584158 5.90202586,0.821039604 5.89672557,1.14792079 C5.8777069,2.29307921 5.85837644,3.43793069 5.82906897,4.58308911 C5.8131681,5.20585149 5.79477299,5.83014851 5.79477299,6.45352475 C5.79477299,6.70919802 5.8013204,6.975 5.87458908,7.22207921 C5.94505172,7.46179208 6.21723707,7.56246535 6.28271121,7.78406931" id="Shape" sketch:type="MSShapeGroup"></path>
        </g>
    </g>
</svg>