<?xml version="1.0" encoding="UTF-8" standalone="no"?>
<svg width="40px" height="31px" viewBox="0 0 40 31" version="1.1" xmlns="http://www.w3.org/2000/svg" xmlns:xlink="http://www.w3.org/1999/xlink" xmlns:sketch="http://www.bohemiancoding.com/sketch/ns">
    <!-- Generator: Sketch 3.3.3 (12081) - http://www.bohemiancoding.com/sketch -->
    <title>hawkerhub-logo</title>
    <desc>Created with Sketch.</desc>
    <defs></defs>
    <g id="HawkerHub/Logos" stroke="none" stroke-width="1" fill="none" fill-rule="evenodd" sketch:type="MSPage">
        <g id="hawkerhub-logo" sketch:type="MSLayerGroup">
            <g id="Wheel-1" transform="translate(9.722955, 10.739459)" fill="#F44336" sketch:type="MSShapeGroup">
                <path d="M9.39424032,10.4519162 L19.1658391,10.4519162 L19.6658391,10.4519162 L19.6658391,9.45191617 L19.1658391,9.45191617 L9.39424032,9.45191617 L8.89424032,9.45191617 L8.89424032,10.4519162 L9.39424032,10.4519162 L9.39424032,10.4519162 Z M9.2160837,10.1214988 L17.6785365,15.0072982 L18.1115492,15.2572982 L18.6115492,14.3912728 L18.1785365,14.1412728 L9.7160837,9.2554734 L9.28307099,9.0054734 L8.78307099,9.87149881 L9.2160837,10.1214988 L9.2160837,10.1214988 Z M9.22935075,9.74564191 L14.1151502,18.2080947 L14.3651502,18.6411074 L15.2311756,18.1411074 L14.9811756,17.7080947 L10.0953762,9.24564191 L9.84537616,8.81262921 L8.97935075,9.31262921 L9.22935075,9.74564191 L9.22935075,9.74564191 Z M9.43048659,9.42505604 L9.43048659,19.1966548 L9.43048659,19.6966548 L10.4304866,19.6966548 L10.4304866,19.1966548 L10.4304866,9.42505604 L10.4304866,8.92505604 L9.43048659,8.92505604 L9.43048659,9.42505604 L9.43048659,9.42505604 Z M9.76559703,9.24564191 L4.87979763,17.7080947 L4.62979763,18.1411074 L5.49582303,18.6411074 L5.74582303,18.2080947 L10.6316224,9.74564191 L10.8816224,9.31262921 L10.015597,8.81262921 L9.76559703,9.24564191 L9.76559703,9.24564191 Z M10.1448895,9.2554734 L1.68243669,14.1412728 L1.24942399,14.3912728 L1.74942399,15.2572982 L2.18243669,15.0072982 L10.6448895,10.1214988 L11.0779022,9.87149881 L10.5779022,9.0054734 L10.1448895,9.2554734 L10.1448895,9.2554734 Z M10.4667329,9.45191617 L0.695134062,9.45191617 L0.195134062,9.45191617 L0.195134062,10.4519162 L0.695134062,10.4519162 L10.4667329,10.4519162 L10.9667329,10.4519162 L10.9667329,9.45191617 L10.4667329,9.45191617 L10.4667329,9.45191617 Z M10.6448895,9.78233353 L2.18243669,4.89653412 L1.74942399,4.64653412 L1.24942399,5.51255952 L1.68243669,5.76255952 L10.1448895,10.6483589 L10.5779022,10.8983589 L11.0779022,10.0323335 L10.6448895,9.78233353 L10.6448895,9.78233353 Z M10.6316224,10.1581904 L5.74582303,1.69573761 L5.49582303,1.26272491 L4.62979763,1.76272491 L4.87979763,2.19573761 L9.76559703,10.6581904 L10.015597,11.0912031 L10.8816224,10.5912031 L10.6316224,10.1581904 L10.6316224,10.1581904 Z M10.4304866,10.4787763 L10.4304866,0.707177481 L10.4304866,0.207177481 L9.43048659,0.207177481 L9.43048659,0.707177481 L9.43048659,10.4787763 L9.43048659,10.9787763 L10.4304866,10.9787763 L10.4304866,10.4787763 L10.4304866,10.4787763 Z M10.0953762,10.6581904 L14.9811756,2.19573761 L15.2311756,1.76272491 L14.3651502,1.26272491 L14.1151502,1.69573761 L9.22935075,10.1581904 L8.97935075,10.5912031 L9.84537616,11.0912031 L10.0953762,10.6581904 L10.0953762,10.6581904 Z M9.7160837,10.6483589 L18.1785365,5.76255952 L18.6115492,5.51255952 L18.1115492,4.64653412 L17.6785365,4.89653412 L9.2160837,9.78233353 L8.78307099,10.0323335 L9.28307099,10.8983589 L9.7160837,10.6483589 L9.7160837,10.6483589 Z" id="Shape"></path>
                <path d="M9.93048659,18.9038323 L9.93048659,18.9038323 C14.862175,18.9038323 18.8609732,14.8964049 18.8609732,9.95191617 C18.8609732,5.00742741 14.862175,1 9.93048659,1 C4.99879817,1 1,5.00742741 1,9.95191617 C1,14.8964049 4.99879817,18.9038323 9.93048659,18.9038323 L9.93048659,18.9038323 Z M9.93048659,19.9038323 L9.93048659,19.9038323 C4.44603029,19.9038323 0,15.4482077 0,9.95191617 C0,4.45562464 4.44603029,0 9.93048659,0 C15.4149429,0 19.8609732,4.45562464 19.8609732,9.95191617 C19.8609732,15.4482077 15.4149429,19.9038323 9.93048659,19.9038323 L9.93048659,19.9038323 Z" id="Shape"></path>
            </g>
            <path d="M31.1828893,21.5465471 L35.9999745,21.5465471 C38.2035752,21.5465471 40,19.7546814 40,17.5443031 L40,4.002244 C40,1.79998651 38.2091276,0 35.9999745,0 L4.00002553,0 C1.79642476,0 0,1.79186567 0,4.002244 L0,17.5443031 C0,19.7465606 1.79087243,21.5465471 4.00002553,21.5465471 L8.16371656,21.5465471 C8.14406945,21.270688 8.1340775,20.9921527 8.1340775,20.7112785 C8.1340775,14.3245878 13.3003647,9.14715194 19.6733029,9.14715194 C26.0462411,9.14715194 31.2125283,14.3245878 31.2125283,20.7112785 C31.2125283,20.9921527 31.2025364,21.270688 31.1828893,21.5465471 Z" id="Rectangle-1" stroke="#F44336" sketch:type="MSShapeGroup"></path>
            <text id="Hawker-Hub" sketch:type="MSTextLayer" font-family="Roboto" font-size="5.13103448" font-weight="bold" sketch:alignment="middle" fill="#F44336">
                <tspan x="5.92723599" y="6.56551724">Hawker Hub</tspan>
            </text>
        </g>
    </g>
</svg>