<?xml version="1.0" encoding="UTF-8" standalone="no"?>
<svg width="103px" height="31px" viewBox="0 0 103 31" version="1.1" xmlns="http://www.w3.org/2000/svg" xmlns:xlink="http://www.w3.org/1999/xlink" xmlns:sketch="http://www.bohemiancoding.com/sketch/ns">
    <!-- Generator: Sketch 3.3.3 (12081) - http://www.bohemiancoding.com/sketch -->
    <title>more-horiz-outline</title>
    <desc>Created with Sketch.</desc>
    <defs></defs>
    <g id="HawkerHub/Logos" stroke="none" stroke-width="1" fill="none" fill-rule="evenodd" sketch:type="MSPage">
        <g id="more-horiz-outline" sketch:type="MSLayerGroup" transform="translate(0.000000, -0.000341)" fill="#838383">
            <path d="M15.4989769,0.484375 C7.23402767,0.484375 0.484375,7.23460258 0.484375,15.5 C0.484375,23.7653974 7.23402767,30.515625 15.4989769,30.515625 C23.7639261,30.515625 30.5135788,23.7653974 30.5135788,15.5 C30.5135788,7.23460258 23.7639261,0.484375 15.4989769,0.484375 L15.4989769,0.484375 Z M15.4989769,6.49021575 C20.4468773,6.49021575 24.507738,10.5514223 24.507738,15.5 C24.507738,20.4485777 20.4468773,24.5097842 15.4989769,24.5097842 C10.5510764,24.5097842 6.49021575,20.4485777 6.49021575,15.5 C6.49021575,10.5514223 10.5510764,6.49021575 15.4989769,6.49021575 L15.4989769,6.49021575 Z M87.5690659,0.484375 C79.3041167,0.484375 72.554464,7.23460258 72.554464,15.5 C72.554464,23.7653974 79.3041167,30.515625 87.5690659,30.515625 C95.8340151,30.515625 102.583668,23.7653974 102.583668,15.5 C102.583668,7.23460258 95.8340151,0.484375 87.5690659,0.484375 L87.5690659,0.484375 Z M87.5690659,6.49021575 C92.5169663,6.49021575 96.577827,10.5514223 96.577827,15.5 C96.577827,20.4485777 92.5169663,24.5097842 87.5690659,24.5097842 C82.6211655,24.5097842 78.5603048,20.4485777 78.5603048,15.5 C78.5603048,10.5514223 82.6211655,6.49021575 87.5690659,6.49021575 L87.5690659,6.49021575 Z M51.5340214,0.484375 C43.2690722,0.484375 36.5194195,7.23460258 36.5194195,15.5 C36.5194195,23.7653974 43.2690722,30.515625 51.5340214,30.515625 C59.7989706,30.515625 66.5486233,23.7653974 66.5486233,15.5 C66.5486233,7.23460258 59.7989706,0.484375 51.5340214,0.484375 L51.5340214,0.484375 Z M51.5340214,6.49021575 C56.4819218,6.49021575 60.5427825,10.5514223 60.5427825,15.5 C60.5427825,20.4485777 56.4819218,24.5097842 51.5340214,24.5097842 C46.586121,24.5097842 42.5252603,20.4485777 42.5252603,15.5 C42.5252603,10.5514223 46.586121,6.49021575 51.5340214,6.49021575 L51.5340214,6.49021575 Z" id="Shape" sketch:type="MSShapeGroup"></path>
        </g>
    </g>
</svg>